<svg width="97" height="101" viewBox="0 0 97 101" fill="none" xmlns="http://www.w3.org/2000/svg">
<g clip-path="url(#clip0_123_105)">
<path d="M48.4724 95.7636C74.9824 95.7636 96.4724 91.8886 96.4724 87.1076C96.4724 82.3276 74.9824 78.4526 48.4724 78.4526C21.9624 78.4526 0.472412 82.3276 0.472412 87.1076C0.472412 91.8876 21.9624 95.7636 48.4724 95.7636Z" fill="url(#paint0_radial_123_105)"/>
<path d="M48.4724 77.6656C74.9824 77.6656 96.4724 60.5786 96.4724 39.5016C96.4724 18.4236 74.9824 1.33765 48.4724 1.33765C21.9624 1.33765 0.472412 18.4246 0.472412 39.5006C0.472412 60.5766 21.9624 77.6656 48.4724 77.6656Z" fill="url(#paint1_radial_123_105)"/>
<path fill-rule="evenodd" clip-rule="evenodd" d="M75.8485 76.1745C76.0243 75.7302 76.0611 75.243 75.9541 74.7773C75.847 74.3116 75.6011 73.8894 75.2489 73.5665C74.8968 73.2436 74.4549 73.0352 73.9817 72.9689C73.5085 72.9026 73.0263 72.9814 72.5989 73.195C72.1715 73.4087 71.819 73.747 71.5881 74.1653C71.3571 74.5836 71.2585 75.0621 71.3054 75.5376C71.3523 76.0131 71.5424 76.4632 71.8506 76.8283C72.1588 77.1934 72.5706 77.4564 73.0315 77.5824C72.9695 77.7394 72.9245 77.9024 72.8975 78.0684C72.174 78.4848 71.6453 79.1713 71.4276 79.9772C71.2099 80.7831 71.321 81.6424 71.7365 82.3665C71.9422 82.725 72.2167 83.0394 72.544 83.2918C72.8714 83.5442 73.2453 83.7296 73.6444 83.8374C74.0434 83.9453 74.4598 83.9734 74.8698 83.9202C75.2797 83.867 75.6751 83.7335 76.0335 83.5274C76.095 84.069 76.296 84.5853 76.6169 85.0258C76.9379 85.4663 77.3677 85.816 77.8643 86.0406C78.3609 86.2651 78.9073 86.3569 79.45 86.3069C79.9928 86.257 80.5132 86.0669 80.9605 85.7555C81.1114 86.0733 81.3315 86.3534 81.6047 86.5753C81.8778 86.7971 82.1971 86.955 82.5392 87.0375C82.8813 87.12 83.2375 87.1249 83.5817 87.0519C83.926 86.979 84.2495 86.8299 84.5287 86.6158C84.8079 86.4016 85.0357 86.1277 85.1954 85.8141C85.3551 85.5006 85.4426 85.1553 85.4516 84.8035C85.4606 84.4517 85.3908 84.1024 85.2473 83.7811C85.1039 83.4598 84.8904 83.1746 84.6225 82.9465C85.1694 82.3482 85.4644 81.5621 85.4462 80.7517C85.428 79.9414 85.098 79.1693 84.5248 78.5962C83.9515 78.0231 83.1794 77.6932 82.369 77.6752C81.5587 77.6572 80.7726 77.9524 80.1745 78.4994C79.8558 78.122 79.4265 77.8543 78.9474 77.7343C78.4682 77.6142 77.9634 77.6479 77.5045 77.8304C77.396 77.4344 77.1862 77.0734 76.8958 76.7831C76.6055 76.4927 76.2445 76.283 75.8485 76.1745ZM24.8655 77.6644C24.8655 77.9744 24.8215 78.2834 24.7315 78.5794C25.3342 78.73 25.8974 79.0086 26.3829 79.3963C26.8684 79.7839 27.2647 80.2716 27.545 80.826C27.8252 81.3805 27.9828 81.9888 28.007 82.6095C28.0313 83.2303 27.9216 83.849 27.6854 84.4237C27.4492 84.9983 27.0921 85.5153 26.6383 85.9396C26.1846 86.3639 25.6448 86.6856 25.0556 86.8827C24.4665 87.0798 23.8418 87.1478 23.224 87.082C22.6062 87.0162 22.0099 86.8182 21.4755 86.5014C20.987 86.8946 20.3785 87.1084 19.7515 87.1074C19.2745 87.1084 18.8055 86.9844 18.3915 86.7494C18.2142 87.139 17.9146 87.46 17.5383 87.6638C17.162 87.8676 16.7295 87.943 16.3064 87.8787C15.8833 87.8143 15.4928 87.6136 15.1941 87.3071C14.8954 87.0006 14.7049 86.6051 14.6515 86.1804C14.2957 86.3087 13.9143 86.3495 13.5394 86.2996C13.1645 86.2496 12.8072 86.1103 12.4974 85.8933C12.1876 85.6764 11.9345 85.3882 11.7594 85.053C11.5843 84.7177 11.4923 84.3454 11.4912 83.9672C11.4901 83.589 11.5799 83.2161 11.7531 82.8798C11.9262 82.5436 12.1776 82.2539 12.4861 82.0352C12.7946 81.8164 13.1512 81.675 13.5257 81.6228C13.9003 81.5707 14.2819 81.6093 14.6385 81.7354C14.6167 81.2319 14.7162 80.7304 14.9285 80.2733C15.1408 79.8162 15.4599 79.4167 15.8587 79.1085C16.2575 78.8003 16.7245 78.5924 17.2205 78.5023C17.7164 78.4121 18.2267 78.4424 18.7085 78.5905C18.5754 78.1575 18.5372 77.7009 18.5967 77.2519C18.6562 76.8029 18.8119 76.372 19.0532 75.9886C19.2944 75.6053 19.6155 75.2785 19.9946 75.0306C20.3737 74.7827 20.8019 74.6196 21.2498 74.5523C21.6977 74.485 22.1549 74.5151 22.5901 74.6407C23.0253 74.7662 23.4282 74.9842 23.7715 75.2798C24.1147 75.5753 24.3901 75.9414 24.579 76.3532C24.7678 76.7649 24.8655 77.2115 24.8655 77.6644Z" fill="url(#paint2_radial_123_105)"/>
<path fill-rule="evenodd" clip-rule="evenodd" d="M52.4065 21.0094C52.4065 21.3974 52.3365 21.7694 52.2085 22.1114C52.4425 22.2254 52.6605 22.3674 52.8585 22.5334C53.1739 22.0091 53.6353 21.5882 54.1862 21.3221C54.7372 21.0561 55.3538 20.9564 55.9605 21.0354C56.306 20.4214 56.8475 19.941 57.4984 19.6713C58.1493 19.4016 58.8719 19.3581 59.5504 19.5478C60.229 19.7375 60.8243 20.1494 61.2409 20.7175C61.6576 21.2857 61.8715 21.9772 61.8485 22.6814C62.2578 22.7875 62.6416 22.9747 62.9772 23.232C63.3127 23.4894 63.593 23.8116 63.8015 24.1794C64.5845 24.2744 65.3025 24.6594 65.8145 25.2574C66.5868 24.9278 67.4443 24.854 68.2616 25.0466C69.0789 25.2392 69.8131 25.6881 70.357 26.3279C70.9009 26.9676 71.2258 27.7645 71.2844 28.6022C71.343 29.4398 71.1321 30.2742 70.6825 30.9834C71.2415 31.3584 71.6655 31.9014 71.8945 32.5354C72.3706 31.8839 73.0788 31.4401 73.8728 31.2956C74.6667 31.1512 75.4858 31.3172 76.1609 31.7594C76.836 32.2015 77.3155 32.886 77.5004 33.6715C77.6853 34.457 77.5615 35.2836 77.1545 35.9804C77.6884 36.041 78.1979 36.2373 78.6344 36.5506C79.0709 36.8639 79.42 37.2837 79.6483 37.7701C79.8766 38.2565 79.9766 38.7932 79.9387 39.3292C79.9008 39.8652 79.7263 40.3826 79.4319 40.832C79.1374 41.2814 78.7328 41.648 78.2565 41.8968C77.7803 42.1455 77.2482 42.2682 76.7111 42.2531C76.174 42.238 75.6497 42.0856 75.1882 41.8105C74.7267 41.5354 74.3432 41.1467 74.0745 40.6814H24.8645V39.4734C24.2714 39.8156 23.583 39.955 22.9035 39.8706C22.2241 39.7863 21.5906 39.4827 21.0992 39.0059C20.6079 38.5291 20.2853 37.9051 20.1805 37.2285C20.0757 36.5519 20.1944 35.8595 20.5185 35.2564C19.9099 34.7624 19.5075 34.059 19.39 33.2839C19.2726 32.5088 19.4486 31.7178 19.8835 31.0657C20.3185 30.4135 20.9811 29.947 21.7418 29.7576C22.5025 29.5682 23.3065 29.6694 23.9965 30.0414C24.2911 29.6778 24.6633 29.3845 25.0858 29.1832C25.5083 28.9818 25.9705 28.8773 26.4385 28.8774C26.4383 28.4297 26.5336 27.987 26.7182 27.579C26.9027 27.1711 27.1722 26.8072 27.5086 26.5117C27.845 26.2162 28.2406 25.9959 28.6689 25.8654C29.0973 25.735 29.5485 25.6975 29.9925 25.7554C30.3036 25.2048 30.7734 24.7607 31.3407 24.481C31.9079 24.2013 32.5463 24.099 33.1725 24.1874C32.7882 23.5411 32.648 22.7786 32.7773 22.0379C32.9065 21.2972 33.2967 20.6272 33.8773 20.1494C34.4578 19.6715 35.1902 19.4172 35.9419 19.4326C36.6937 19.4481 37.4151 19.7321 37.9755 20.2334C38.6709 20.1744 39.3663 20.3481 39.9524 20.7271C40.5384 21.1061 40.982 21.669 41.2135 22.3274C41.6235 22.0514 42.0935 21.8774 42.5845 21.8174C42.9318 21.2037 43.4751 20.7244 44.1274 20.4563C44.7797 20.1883 45.503 20.1471 46.1815 20.3394C46.3467 19.5805 46.7865 18.9095 47.4165 18.4553C48.0465 18.0011 48.8222 17.7958 49.5944 17.8789C50.3666 17.9621 51.0808 18.3277 51.5998 18.9056C52.1187 19.4835 52.4066 20.2328 52.4065 21.0094Z" fill="url(#paint3_radial_123_105)"/>
<path opacity="0.6" d="M46.5055 37.5345C47.4872 37.5345 48.4593 37.3411 49.3663 36.9655C50.2732 36.5898 51.0973 36.0391 51.7915 35.345C52.4857 34.6508 53.0363 33.8267 53.412 32.9197C53.7877 32.0128 53.981 31.0407 53.981 30.059C53.981 29.0773 53.7877 28.1052 53.412 27.1982C53.0363 26.2913 52.4857 25.4672 51.7915 24.773C51.0973 24.0789 50.2732 23.5282 49.3663 23.1525C48.4593 22.7769 47.4872 22.5835 46.5055 22.5835C44.523 22.5835 42.6217 23.371 41.2199 24.7729C39.8181 26.1747 39.0305 28.076 39.0305 30.0585C39.0305 32.041 39.8181 33.9423 41.2199 35.3441C42.6217 36.746 44.523 37.5345 46.5055 37.5345Z" fill="url(#paint4_radial_123_105)"/>
<path opacity="0.6" d="M44.1443 32.8125C45.5009 32.8125 46.8019 32.2736 47.7612 31.3144C48.7204 30.3551 49.2593 29.0541 49.2593 27.6975C49.2593 26.3409 48.7204 25.0399 47.7612 24.0807C46.8019 23.1214 45.5009 22.5825 44.1443 22.5825C42.7877 22.5825 41.4867 23.1214 40.5274 24.0807C39.5682 25.0399 39.0293 26.3409 39.0293 27.6975C39.0293 29.0541 39.5682 30.3551 40.5274 31.3144C41.4867 32.2736 42.7877 32.8125 44.1443 32.8125Z" fill="url(#paint5_radial_123_105)"/>
<path opacity="0.6" d="M42.5703 36.7476C43.9269 36.7476 45.2279 36.2087 46.1872 35.2494C47.1464 34.2902 47.6853 32.9892 47.6853 31.6326C47.6853 30.276 47.1464 28.975 46.1872 28.0157C45.2279 27.0565 43.9269 26.5176 42.5703 26.5176C41.2137 26.5176 39.9127 27.0565 38.9535 28.0157C37.9942 28.975 37.4553 30.276 37.4553 31.6326C37.4553 32.9892 37.9942 34.2902 38.9535 35.2494C39.9127 36.2087 41.2137 36.7476 42.5703 36.7476Z" fill="url(#paint6_radial_123_105)"/>
<path opacity="0.6" d="M27.6204 39.1074C28.977 39.1074 30.278 38.5685 31.2372 37.6093C32.1965 36.65 32.7354 35.349 32.7354 33.9924C32.7354 32.6359 32.1965 31.3348 31.2372 30.3756C30.278 29.4163 28.977 28.8774 27.6204 28.8774C26.2638 28.8774 24.9628 29.4163 24.0035 30.3756C23.0443 31.3348 22.5054 32.6359 22.5054 33.9924C22.5054 35.349 23.0443 36.65 24.0035 37.6093C24.9628 38.5685 26.2638 39.1074 27.6204 39.1074Z" fill="url(#paint7_radial_123_105)"/>
<path opacity="0.6" d="M30.7673 36.7476C32.1239 36.7476 33.4249 36.2087 34.3842 35.2494C35.3434 34.2902 35.8823 32.9892 35.8823 31.6326C35.8823 30.276 35.3434 28.975 34.3842 28.0157C33.4249 27.0565 32.1239 26.5176 30.7673 26.5176C29.4108 26.5176 28.1097 27.0565 27.1505 28.0157C26.1912 28.975 25.6523 30.276 25.6523 31.6326C25.6523 32.9892 26.1912 34.2902 27.1505 35.2494C28.1097 36.2087 29.4108 36.7476 30.7673 36.7476Z" fill="url(#paint8_radial_123_105)"/>
<path opacity="0.6" d="M30.7674 38.3205C31.4978 38.3205 32.1983 38.0303 32.7148 37.5139C33.2313 36.9974 33.5214 36.2969 33.5214 35.5665C33.5214 34.8361 33.2313 34.1356 32.7148 33.6191C32.1983 33.1027 31.4978 32.8125 30.7674 32.8125C30.037 32.8125 29.3365 33.1027 28.8201 33.6191C28.3036 34.1356 28.0134 34.8361 28.0134 35.5665C28.0134 36.2969 28.3036 36.9974 28.8201 37.5139C29.3365 38.0303 30.037 38.3205 30.7674 38.3205Z" fill="url(#paint9_radial_123_105)"/>
<path opacity="0.2" d="M74.0465 36.7475C74.7769 36.7475 75.4774 36.4574 75.9939 35.9409C76.5103 35.4244 76.8005 34.7239 76.8005 33.9935C76.8005 33.2631 76.5103 32.5626 75.9939 32.0461C75.4774 31.5297 74.7769 31.2395 74.0465 31.2395C73.3161 31.2395 72.6156 31.5297 72.0991 32.0461C71.5826 32.5626 71.2925 33.2631 71.2925 33.9935C71.2925 34.7239 71.5826 35.4244 72.0991 35.9409C72.6156 36.4574 73.3161 36.7475 74.0465 36.7475Z" fill="url(#paint10_radial_123_105)"/>
<path opacity="0.2" d="M77.1933 39.8945C77.715 39.8945 78.2153 39.6872 78.5842 39.3183C78.9531 38.9494 79.1603 38.4491 79.1603 37.9274C79.1603 37.4058 78.9531 36.9055 78.5842 36.5366C78.2153 36.1677 77.715 35.9604 77.1933 35.9604C76.6716 35.9604 76.1713 36.1677 75.8024 36.5366C75.4336 36.9055 75.2263 37.4058 75.2263 37.9274C75.2263 38.4491 75.4336 38.9494 75.8024 39.3183C76.1713 39.6872 76.6716 39.8945 77.1933 39.8945Z" fill="url(#paint11_radial_123_105)"/>
<path opacity="0.3" d="M73.2595 40.6816C74.1986 40.6816 75.0993 40.3085 75.7634 39.6445C76.4274 38.9804 76.8005 38.0797 76.8005 37.1406C76.8005 36.2015 76.4274 35.3008 75.7634 34.6367C75.0993 33.9727 74.1986 33.5996 73.2595 33.5996C72.3204 33.5996 71.4197 33.9727 70.7556 34.6367C70.0916 35.3008 69.7185 36.2015 69.7185 37.1406C69.7185 38.0797 70.0916 38.9804 70.7556 39.6445C71.4197 40.3085 72.3204 40.6816 73.2595 40.6816Z" fill="url(#paint12_radial_123_105)"/>
<path opacity="0.2" d="M59.0953 24.9435C59.457 24.9435 59.8151 24.8723 60.1492 24.7339C60.4834 24.5955 60.787 24.3927 61.0427 24.1369C61.2984 23.8812 61.5013 23.5776 61.6397 23.2435C61.7781 22.9093 61.8493 22.5512 61.8493 22.1895C61.8493 21.8279 61.7781 21.4698 61.6397 21.1356C61.5013 20.8015 61.2984 20.4979 61.0427 20.2422C60.787 19.9864 60.4834 19.7836 60.1492 19.6452C59.8151 19.5068 59.457 19.4355 59.0953 19.4355C58.3649 19.4355 57.6644 19.7257 57.1479 20.2422C56.6315 20.7586 56.3413 21.4591 56.3413 22.1895C56.3413 22.92 56.6315 23.6204 57.1479 24.1369C57.6644 24.6534 58.3649 24.9435 59.0953 24.9435Z" fill="url(#paint13_radial_123_105)"/>
<path opacity="0.2" d="M48.8655 21.7966C49.3873 21.7966 49.8877 21.5893 50.2567 21.2203C50.6257 20.8513 50.833 20.3509 50.833 19.8291C50.833 19.3073 50.6257 18.8068 50.2567 18.4378C49.8877 18.0689 49.3873 17.8616 48.8655 17.8616C48.3436 17.8616 47.8432 18.0689 47.4742 18.4378C47.1052 18.8068 46.8979 19.3073 46.8979 19.8291C46.8979 20.3509 47.1052 20.8513 47.4742 21.2203C47.8432 21.5893 48.3436 21.7966 48.8655 21.7966Z" fill="url(#paint14_radial_123_105)"/>
<path opacity="0.2" d="M35.4885 24.1577C36.0103 24.1577 36.5108 23.9504 36.8797 23.5814C37.2487 23.2124 37.456 22.712 37.456 22.1902C37.456 21.6683 37.2487 21.1679 36.8797 20.7989C36.5108 20.4299 36.0103 20.2227 35.4885 20.2227C34.9667 20.2227 34.4662 20.4299 34.0973 20.7989C33.7283 21.1679 33.521 21.6683 33.521 22.1902C33.521 22.712 33.7283 23.2124 34.0973 23.5814C34.4662 23.9504 34.9667 24.1577 35.4885 24.1577Z" fill="url(#paint15_radial_123_105)"/>
<path opacity="0.2" d="M62.2424 33.6006C63.599 33.6006 64.9 33.0617 65.8593 32.1025C66.8185 31.1432 67.3574 29.8422 67.3574 28.4856C67.3574 27.129 66.8185 25.828 65.8593 24.8688C64.9 23.9095 63.599 23.3706 62.2424 23.3706C60.8859 23.3706 59.5848 23.9095 58.6256 24.8688C57.6663 25.828 57.1274 27.129 57.1274 28.4856C57.1274 29.8422 57.6663 31.1432 58.6256 32.1025C59.5848 33.0617 60.8859 33.6006 62.2424 33.6006Z" fill="url(#paint16_radial_123_105)"/>
<path opacity="0.6" d="M57.5225 32.0256C58.2001 32.0351 58.8729 31.9098 59.5018 31.6571C60.1306 31.4043 60.7029 31.0291 61.1855 30.5532C61.668 30.0773 62.0512 29.5103 62.3128 28.8851C62.5743 28.2598 62.709 27.5889 62.709 26.9111C62.709 26.2334 62.5743 25.5624 62.3128 24.9372C62.0512 24.312 61.668 23.745 61.1855 23.2691C60.7029 22.7932 60.1306 22.418 59.5018 22.1652C58.8729 21.9125 58.2001 21.7872 57.5225 21.7966C56.1659 21.7966 54.8649 22.3355 53.9056 23.2948C52.9464 24.254 52.4075 25.5551 52.4075 26.9116C52.4075 28.2682 52.9464 29.5692 53.9056 30.5285C54.8649 31.4877 56.1659 32.0256 57.5225 32.0256Z" fill="url(#paint17_radial_123_105)"/>
<path opacity="0.2" d="M59.8823 34.3865C61.2389 34.3865 62.5399 33.8476 63.4992 32.8883C64.4584 31.9291 64.9973 30.6281 64.9973 29.2715C64.9973 27.9149 64.4584 26.6139 63.4992 25.6546C62.5399 24.6954 61.2389 24.1565 59.8823 24.1565C58.5258 24.1565 57.2247 24.6954 56.2655 25.6546C55.3062 26.6139 54.7673 27.9149 54.7673 29.2715C54.7673 30.6281 55.3062 31.9291 56.2655 32.8883C57.2247 33.8476 58.5258 34.3865 59.8823 34.3865Z" fill="url(#paint18_radial_123_105)"/>
<path d="M19.3574 37.5344H64.2104L60.2754 89.4684H22.5054L19.3574 37.5344Z" fill="url(#paint19_linear_123_105)"/>
<path d="M72.0794 86.3204L60.2754 89.4684L64.2104 37.5344L79.1604 41.4684L72.0794 86.3204Z" fill="url(#paint20_linear_123_105)"/>
<path fill-rule="evenodd" clip-rule="evenodd" d="M46.8025 47.8834L47.0565 37.5334H37.6685L37.7725 47.3734C36.1337 47.7397 34.5607 48.3552 33.1085 49.1984L32.7815 37.5344H23.3745L26.3015 89.4684H34.2445L33.9275 78.2484C35.2512 78.9196 36.6596 79.4084 38.1145 79.7014L38.2195 89.4684H45.7775L46.0275 79.3674C47.3122 78.9923 48.5464 78.4617 49.7025 77.7874L49.3325 89.4684H57.6535L60.3945 37.5344H50.9775L50.5895 49.7714C49.4133 48.9818 48.1401 48.3472 46.8015 47.8834H46.8025ZM62.8805 88.7734L65.8305 87.9874L71.6755 39.4994L67.1745 38.3134L62.8805 88.7734ZM67.5105 87.5394L69.8275 86.9214L77.6655 41.0754L73.2905 39.9234L67.5105 87.5394ZM53.9795 63.5004C53.9795 70.4534 48.3435 76.0904 41.3895 76.0904C34.4355 76.0904 28.7995 70.4544 28.7995 63.5004C28.7995 56.5464 34.4355 50.9104 41.3895 50.9104C48.3435 50.9104 53.9795 56.5464 53.9795 63.5004ZM46.8075 70.2954L45.1125 64.8104L49.2205 61.7634C49.2842 61.7162 49.332 61.6507 49.3575 61.5757C49.3831 61.5006 49.3851 61.4195 49.3634 61.3433C49.3416 61.267 49.2972 61.1992 49.2359 61.1488C49.1747 61.0985 49.0995 61.068 49.0205 61.0614C47.2954 60.9222 45.5667 60.8308 43.8365 60.7874L41.7605 55.0754C41.7328 54.9996 41.6824 54.9342 41.6162 54.8879C41.55 54.8417 41.4712 54.8169 41.3905 54.8169C41.3098 54.8169 41.231 54.8417 41.1648 54.8879C41.0986 54.9342 41.0483 54.9996 41.0205 55.0754L38.9445 60.7874C37.1845 60.8314 35.4545 60.9244 33.7595 61.0614C33.6807 61.0683 33.6058 61.0991 33.5448 61.1496C33.4838 61.2001 33.4397 61.2679 33.4182 61.3441C33.3967 61.4203 33.3989 61.5012 33.4245 61.5761C33.4501 61.651 33.4979 61.7164 33.5615 61.7634L37.6685 64.8094L35.9725 70.2944C35.9484 70.3725 35.9492 70.456 35.9747 70.5336C36.0002 70.6112 36.0491 70.6789 36.1148 70.7275C36.1805 70.776 36.2596 70.8029 36.3412 70.8045C36.4229 70.8061 36.503 70.7823 36.5705 70.7364L41.3905 67.4554L46.2105 70.7364C46.278 70.7826 46.3581 70.8066 46.4398 70.8052C46.5215 70.8037 46.6007 70.7769 46.6665 70.7285C46.7323 70.6801 46.7814 70.6124 46.807 70.5348C46.8326 70.4572 46.8335 70.3735 46.8095 70.2954H46.8075Z" fill="url(#paint21_linear_123_105)"/>
<path opacity="0.4" d="M17.3903 83.1735C17.912 83.1735 18.4123 82.9663 18.7812 82.5974C19.1501 82.2285 19.3573 81.7282 19.3573 81.2065C19.3573 80.6848 19.1501 80.1845 18.7812 79.8156C18.4123 79.4467 17.912 79.2395 17.3903 79.2395C16.8687 79.2395 16.3683 79.4467 15.9995 79.8156C15.6306 80.1845 15.4233 80.6848 15.4233 81.2065C15.4233 81.7282 15.6306 82.2285 15.9995 82.5974C16.3683 82.9663 16.8687 83.1735 17.3903 83.1735Z" fill="url(#paint22_radial_123_105)"/>
<path opacity="0.4" d="M14.2424 85.5346C14.7642 85.5346 15.2647 85.3273 15.6336 84.9583C16.0026 84.5894 16.2099 84.0889 16.2099 83.5671C16.2099 83.0453 16.0026 82.5449 15.6336 82.1759C15.2647 81.8069 14.7642 81.5996 14.2424 81.5996C13.7206 81.5996 13.2201 81.8069 12.8512 82.1759C12.4822 82.5449 12.2749 83.0453 12.2749 83.5671C12.2749 84.0889 12.4822 84.5894 12.8512 84.9583C13.2201 85.3273 13.7206 85.5346 14.2424 85.5346Z" fill="url(#paint23_radial_123_105)"/>
<path opacity="0.4" d="M16.6035 85.5346C17.1253 85.5346 17.6257 85.3273 17.9947 84.9583C18.3637 84.5894 18.571 84.0889 18.571 83.5671C18.571 83.0453 18.3637 82.5449 17.9947 82.1759C17.6257 81.8069 17.1253 81.5996 16.6035 81.5996C16.0817 81.5996 15.5812 81.8069 15.2123 82.1759C14.8433 82.5449 14.636 83.0453 14.636 83.5671C14.636 84.0889 14.8433 84.5894 15.2123 84.9583C15.5812 85.3273 16.0817 85.5346 16.6035 85.5346Z" fill="url(#paint24_radial_123_105)"/>
<path opacity="0.4" d="M19.7514 87.1076C20.0097 87.1076 20.2655 87.0567 20.5042 86.9579C20.7428 86.859 20.9597 86.7141 21.1423 86.5315C21.325 86.3488 21.4698 86.132 21.5687 85.8933C21.6675 85.6547 21.7184 85.3989 21.7184 85.1406C21.7184 84.8823 21.6675 84.6265 21.5687 84.3878C21.4698 84.1492 21.325 83.9324 21.1423 83.7497C20.9597 83.567 20.7428 83.4222 20.5042 83.3233C20.2655 83.2245 20.0097 83.1736 19.7514 83.1736C19.2297 83.1736 18.7294 83.3808 18.3605 83.7497C17.9917 84.1186 17.7844 84.6189 17.7844 85.1406C17.7844 85.6623 17.9917 86.1626 18.3605 86.5315C18.7294 86.9003 19.2297 87.1076 19.7514 87.1076Z" fill="url(#paint25_radial_123_105)"/>
<path opacity="0.4" d="M82.7024 86.3205C83.224 86.3205 83.7243 86.1132 84.0932 85.7444C84.4621 85.3755 84.6693 84.8752 84.6693 84.3535C84.6693 83.8318 84.4621 83.3315 84.0932 82.9626C83.7243 82.5937 83.224 82.3865 82.7024 82.3865C82.1807 82.3865 81.6804 82.5937 81.3115 82.9626C80.9426 83.3315 80.7354 83.8318 80.7354 84.3535C80.7354 84.8752 80.9426 85.3755 81.3115 85.7444C81.6804 86.1132 82.1807 86.3205 82.7024 86.3205Z" fill="url(#paint26_radial_123_105)"/>
<path opacity="0.4" d="M82.3085 83.1736C82.9345 83.1736 83.5349 82.9249 83.9776 82.4823C84.4203 82.0396 84.669 81.4392 84.669 80.8131C84.669 80.1871 84.4203 79.5867 83.9776 79.144C83.5349 78.7013 82.9345 78.4526 82.3085 78.4526C81.6825 78.4526 81.0821 78.7013 80.6394 79.144C80.1967 79.5867 79.948 80.1871 79.948 80.8131C79.948 81.4392 80.1967 82.0396 80.6394 82.4823C81.0821 82.9249 81.6825 83.1736 82.3085 83.1736Z" fill="url(#paint27_radial_123_105)"/>
<path opacity="0.4" d="M78.3744 83.1736C79.0005 83.1736 79.6009 82.9249 80.0435 82.4823C80.4862 82.0396 80.7349 81.4392 80.7349 80.8131C80.7349 80.1871 80.4862 79.5867 80.0435 79.144C79.6009 78.7013 79.0005 78.4526 78.3744 78.4526C77.7484 78.4526 77.148 78.7013 76.7053 79.144C76.2626 79.5867 76.0139 80.1871 76.0139 80.8131C76.0139 81.4392 76.2626 82.0396 76.7053 82.4823C77.148 82.9249 77.7484 83.1736 78.3744 83.1736Z" fill="url(#paint28_radial_123_105)"/>
<path opacity="0.4" d="M75.6195 82.3864C76.3499 82.3864 77.0504 82.0963 77.5669 81.5798C78.0833 81.0633 78.3735 80.3628 78.3735 79.6324C78.3735 78.902 78.0833 78.2015 77.5669 77.685C77.0504 77.1686 76.3499 76.8784 75.6195 76.8784C74.8891 76.8784 74.1886 77.1686 73.6721 77.685C73.1556 78.2015 72.8655 78.902 72.8655 79.6324C72.8655 80.3628 73.1556 81.0633 73.6721 81.5798C74.1886 82.0963 74.8891 82.3864 75.6195 82.3864Z" fill="url(#paint29_radial_123_105)"/>
<path opacity="0.4" d="M18.9645 85.5346C19.695 85.5346 20.3956 85.2444 20.9122 84.7279C21.4288 84.2113 21.719 83.5107 21.719 82.7801C21.719 82.0496 21.4288 81.349 20.9122 80.8324C20.3956 80.3158 19.695 80.0256 18.9645 80.0256C18.2339 80.0256 17.5333 80.3158 17.0167 80.8324C16.5002 81.349 16.21 82.0496 16.21 82.7801C16.21 83.5107 16.5002 84.2113 17.0167 84.7279C17.5333 85.2444 18.2339 85.5346 18.9645 85.5346Z" fill="url(#paint30_radial_123_105)"/>
<path fill-rule="evenodd" clip-rule="evenodd" d="M74.4395 80.0256C75.0655 80.0259 75.6658 80.2748 76.1083 80.7175C76.5509 81.1603 76.7995 81.7606 76.7995 82.3866C77.2506 82.3864 77.6965 82.4831 78.107 82.6702C78.5174 82.8573 78.8829 83.1305 79.1786 83.4711C79.4743 83.8118 79.6933 84.2121 79.8208 84.6448C79.9483 85.0775 79.9814 85.5325 79.9177 85.9791C79.854 86.4257 79.6951 86.8534 79.4517 87.2332C79.2082 87.613 78.8861 87.9361 78.5069 88.1805C78.1278 88.4249 77.7005 88.585 77.2541 88.6499C76.8077 88.7148 76.3525 88.683 75.9195 88.5566C75.7561 89.1258 75.3847 89.6127 74.879 89.9208C74.3733 90.2288 73.7703 90.3356 73.1896 90.2197C72.6089 90.1039 72.0929 89.774 71.7441 89.2956C71.3953 88.8171 71.2391 88.2249 71.3065 87.6366C70.7695 87.3854 70.3279 86.9676 70.0472 86.4454C69.7666 85.9231 69.6619 85.3243 69.7487 84.7378C69.8355 84.1513 70.1092 83.6085 70.5291 83.19C70.949 82.7714 71.4927 82.4995 72.0795 82.4146V82.3866C72.0795 81.7607 72.3281 81.1605 72.7707 80.7179C73.2133 80.2753 73.8136 80.0256 74.4395 80.0256Z" fill="url(#paint31_radial_123_105)"/>
</g>
<defs>
<radialGradient id="paint0_radial_123_105" cx="0" cy="0" r="1" gradientUnits="userSpaceOnUse" gradientTransform="translate(48.4724 87.1546) rotate(-90) scale(8.70201 48.2567)">
<stop offset="0.286" stop-color="#7D2889"/>
<stop offset="0.724" stop-color="#FF66D9" stop-opacity="0.41"/>
<stop offset="1" stop-color="white" stop-opacity="0"/>
</radialGradient>
<radialGradient id="paint1_radial_123_105" cx="0" cy="0" r="1" gradientUnits="userSpaceOnUse" gradientTransform="translate(48.4724 39.7056) rotate(-90) scale(38.3681 48.2567)">
<stop stop-color="#FFCA45"/>
<stop offset="0.453" stop-color="#FF66D9" stop-opacity="0.36"/>
<stop offset="1" stop-color="white" stop-opacity="0"/>
</radialGradient>
<radialGradient id="paint2_radial_123_105" cx="0" cy="0" r="1" gradientUnits="userSpaceOnUse" gradientTransform="translate(47.2925 80.0264) rotate(180) scale(37.7705 37.7705)">
<stop offset="0.432" stop-color="#FF8B54"/>
<stop offset="0.76" stop-color="#FFBB8D"/>
<stop offset="1" stop-color="#F9DDD1"/>
</radialGradient>
<radialGradient id="paint3_radial_123_105" cx="0" cy="0" r="1" gradientUnits="userSpaceOnUse" gradientTransform="translate(48.0795 28.4844) rotate(-90) scale(10.623 28.257)">
<stop offset="0.302" stop-color="#F9DDD1"/>
<stop offset="0.674" stop-color="#FFBB8D"/>
<stop offset="1" stop-color="#FF8B54"/>
</radialGradient>
<radialGradient id="paint4_radial_123_105" cx="0" cy="0" r="1" gradientUnits="userSpaceOnUse" gradientTransform="translate(46.5045 30.4985) rotate(90) scale(7.03568)">
<stop offset="0.375" stop-color="#FFF4EB"/>
<stop offset="1" stop-color="#FFF3EB" stop-opacity="0"/>
</radialGradient>
<radialGradient id="paint5_radial_123_105" cx="0" cy="0" r="1" gradientUnits="userSpaceOnUse" gradientTransform="translate(44.1443 27.9985) rotate(90) scale(4.81389)">
<stop offset="0.375" stop-color="#FFF4EB"/>
<stop offset="1" stop-color="#FFF3EB" stop-opacity="0"/>
</radialGradient>
<radialGradient id="paint6_radial_123_105" cx="0" cy="0" r="1" gradientUnits="userSpaceOnUse" gradientTransform="translate(42.5703 31.9326) rotate(90) scale(4.81389)">
<stop offset="0.375" stop-color="#FFF4EB"/>
<stop offset="1" stop-color="#FFF3EB" stop-opacity="0"/>
</radialGradient>
<radialGradient id="paint7_radial_123_105" cx="0" cy="0" r="1" gradientUnits="userSpaceOnUse" gradientTransform="translate(27.6194 34.2934) rotate(90) scale(4.81389)">
<stop offset="0.375" stop-color="#FFF4EB"/>
<stop offset="1" stop-color="#FFF3EB" stop-opacity="0"/>
</radialGradient>
<radialGradient id="paint8_radial_123_105" cx="0" cy="0" r="1" gradientUnits="userSpaceOnUse" gradientTransform="translate(30.7673 31.9336) rotate(90) scale(4.81389)">
<stop offset="0.375" stop-color="#FFF4EB"/>
<stop offset="1" stop-color="#FFF3EB" stop-opacity="0"/>
</radialGradient>
<radialGradient id="paint9_radial_123_105" cx="0" cy="0" r="1" gradientUnits="userSpaceOnUse" gradientTransform="translate(30.7674 35.7295) rotate(90) scale(2.59209)">
<stop offset="0.375" stop-color="#FFF4EB"/>
<stop offset="1" stop-color="#FFF3EB" stop-opacity="0"/>
</radialGradient>
<radialGradient id="paint10_radial_123_105" cx="0" cy="0" r="1" gradientUnits="userSpaceOnUse" gradientTransform="translate(74.0475 34.1555) rotate(90) scale(2.59209 2.59209)">
<stop offset="0.375" stop-color="#FFF4EB"/>
<stop offset="1" stop-color="#FFF3EB" stop-opacity="0"/>
</radialGradient>
<radialGradient id="paint11_radial_123_105" cx="0" cy="0" r="1" gradientUnits="userSpaceOnUse" gradientTransform="translate(77.1933 38.0435) rotate(90) scale(1.85149 1.85149)">
<stop offset="0.375" stop-color="#FFF4EB"/>
<stop offset="1" stop-color="#FFF3EB" stop-opacity="0"/>
</radialGradient>
<radialGradient id="paint12_radial_123_105" cx="0" cy="0" r="1" gradientUnits="userSpaceOnUse" gradientTransform="translate(73.2585 37.3486) rotate(90) scale(3.33269)">
<stop offset="0.375" stop-color="#FFF4EB"/>
<stop offset="1" stop-color="#FFF3EB" stop-opacity="0"/>
</radialGradient>
<radialGradient id="paint13_radial_123_105" cx="0" cy="0" r="1" gradientUnits="userSpaceOnUse" gradientTransform="translate(59.0943 22.3525) rotate(90) scale(2.59209)">
<stop offset="0.375" stop-color="#FFF4EB"/>
<stop offset="1" stop-color="#FFF3EB" stop-opacity="0"/>
</radialGradient>
<radialGradient id="paint14_radial_123_105" cx="0" cy="0" r="1" gradientUnits="userSpaceOnUse" gradientTransform="translate(48.8664 19.9446) rotate(90) scale(1.8515)">
<stop offset="0.375" stop-color="#FFF4EB"/>
<stop offset="1" stop-color="#FFF3EB" stop-opacity="0"/>
</radialGradient>
<radialGradient id="paint15_radial_123_105" cx="0" cy="0" r="1" gradientUnits="userSpaceOnUse" gradientTransform="translate(35.4885 22.3067) rotate(90) scale(1.85149)">
<stop offset="0.375" stop-color="#FFF4EB"/>
<stop offset="1" stop-color="#FFF3EB" stop-opacity="0"/>
</radialGradient>
<radialGradient id="paint16_radial_123_105" cx="0" cy="0" r="1" gradientUnits="userSpaceOnUse" gradientTransform="translate(62.2434 28.7856) rotate(90) scale(4.81389 4.81389)">
<stop offset="0.375" stop-color="#FFF4EB"/>
<stop offset="1" stop-color="#FFF3EB" stop-opacity="0"/>
</radialGradient>
<radialGradient id="paint17_radial_123_105" cx="0" cy="0" r="1" gradientUnits="userSpaceOnUse" gradientTransform="translate(57.5215 27.2116) rotate(90) scale(4.81389)">
<stop offset="0.375" stop-color="#FFF4EB"/>
<stop offset="1" stop-color="#FFF3EB" stop-opacity="0"/>
</radialGradient>
<radialGradient id="paint18_radial_123_105" cx="0" cy="0" r="1" gradientUnits="userSpaceOnUse" gradientTransform="translate(59.8823 29.5725) rotate(90) scale(4.81389 4.81389)">
<stop offset="0.375" stop-color="#FFF4EB"/>
<stop offset="1" stop-color="#FFF3EB" stop-opacity="0"/>
</radialGradient>
<linearGradient id="paint19_linear_123_105" x1="60.2754" y1="89.4684" x2="34.2364" y2="21.5964" gradientUnits="userSpaceOnUse">
<stop stop-color="#E0B1CC"/>
<stop offset="0.431" stop-color="#FFF1F1"/>
<stop offset="1" stop-color="#FFC9A5"/>
</linearGradient>
<linearGradient id="paint20_linear_123_105" x1="60.2754" y1="53.6654" x2="83.8824" y2="53.6654" gradientUnits="userSpaceOnUse">
<stop stop-color="#D16AE9"/>
<stop offset="1" stop-color="#FF661D"/>
</linearGradient>
<linearGradient id="paint21_linear_123_105" x1="18.5835" y1="37.5344" x2="75.6085" y2="86.1714" gradientUnits="userSpaceOnUse">
<stop stop-color="#FF661D"/>
<stop offset="0.5" stop-color="#CE3A00"/>
<stop offset="1" stop-color="#A60A5E"/>
</linearGradient>
<radialGradient id="paint22_radial_123_105" cx="0" cy="0" r="1" gradientUnits="userSpaceOnUse" gradientTransform="translate(17.3903 81.3225) rotate(90) scale(1.8515)">
<stop offset="0.375" stop-color="#F9DDD1"/>
<stop offset="1" stop-color="#FFF3EB" stop-opacity="0"/>
</radialGradient>
<radialGradient id="paint23_radial_123_105" cx="0" cy="0" r="1" gradientUnits="userSpaceOnUse" gradientTransform="translate(14.2434 83.6836) rotate(90) scale(1.8515 1.8515)">
<stop offset="0.375" stop-color="#F9DDD1"/>
<stop offset="1" stop-color="#FFF3EB" stop-opacity="0"/>
</radialGradient>
<radialGradient id="paint24_radial_123_105" cx="0" cy="0" r="1" gradientUnits="userSpaceOnUse" gradientTransform="translate(16.6045 83.6826) rotate(90) scale(1.8515)">
<stop offset="0.375" stop-color="#F9DDD1"/>
<stop offset="1" stop-color="#FFF3EB" stop-opacity="0"/>
</radialGradient>
<radialGradient id="paint25_radial_123_105" cx="0" cy="0" r="1" gradientUnits="userSpaceOnUse" gradientTransform="translate(19.7514 85.2576) rotate(90) scale(1.85149)">
<stop offset="0.375" stop-color="#F9DDD1"/>
<stop offset="1" stop-color="#FFF3EB" stop-opacity="0"/>
</radialGradient>
<radialGradient id="paint26_radial_123_105" cx="0" cy="0" r="1" gradientUnits="userSpaceOnUse" gradientTransform="translate(82.7024 84.4705) rotate(90) scale(1.85149)">
<stop offset="0.375" stop-color="#F9DDD1"/>
<stop offset="1" stop-color="#FFF3EB" stop-opacity="0"/>
</radialGradient>
<radialGradient id="paint27_radial_123_105" cx="0" cy="0" r="1" gradientUnits="userSpaceOnUse" gradientTransform="translate(82.3085 80.9506) rotate(90) scale(2.2218)">
<stop offset="0.375" stop-color="#F9DDD1"/>
<stop offset="1" stop-color="#FFF3EB" stop-opacity="0"/>
</radialGradient>
<radialGradient id="paint28_radial_123_105" cx="0" cy="0" r="1" gradientUnits="userSpaceOnUse" gradientTransform="translate(78.3734 80.9516) rotate(90) scale(2.2218)">
<stop offset="0.375" stop-color="#F9DDD1"/>
<stop offset="1" stop-color="#FFF3EB" stop-opacity="0"/>
</radialGradient>
<radialGradient id="paint29_radial_123_105" cx="0" cy="0" r="1" gradientUnits="userSpaceOnUse" gradientTransform="translate(75.6205 79.7944) rotate(90) scale(2.5921 2.5921)">
<stop offset="0.375" stop-color="#F9DDD1"/>
<stop offset="1" stop-color="#FFF3EB" stop-opacity="0"/>
</radialGradient>
<radialGradient id="paint30_radial_123_105" cx="0" cy="0" r="1" gradientUnits="userSpaceOnUse" gradientTransform="translate(18.9645 82.9426) rotate(90) scale(2.5921 2.5921)">
<stop offset="0.375" stop-color="#F9DDD1"/>
<stop offset="1" stop-color="#FFF3EB" stop-opacity="0"/>
</radialGradient>
<radialGradient id="paint31_radial_123_105" cx="0" cy="0" r="1" gradientUnits="userSpaceOnUse" gradientTransform="translate(76.8006 85.1411) rotate(111.038) scale(5.48002)">
<stop stop-color="#FDF7F2"/>
<stop offset="1" stop-color="#FFD8BD"/>
</radialGradient>
<clipPath id="clip0_123_105">
<rect width="96" height="96" fill="white" transform="translate(0.472412 0.550537)"/>
</clipPath>
</defs>
</svg>
