<svg width="80" height="80" viewBox="0 0 80 80" fill="none" xmlns="http://www.w3.org/2000/svg">
<path d="M70.0469 55.9906L55.4156 41.3594L67.2656 37.1375C67.3469 37.1094 67.425 37.0781 67.5031 37.0438C68.6572 36.534 69.6301 35.6869 70.2936 34.6139C70.9572 33.5408 71.2805 32.292 71.221 31.0318C71.1615 29.7715 70.722 28.5587 69.9602 27.553C69.1984 26.5472 68.1501 25.7956 66.9531 25.3969L16.925 9.0625C15.8309 8.71089 14.661 8.66776 13.544 8.93783C12.4269 9.20791 11.406 9.78075 10.5934 10.5934C9.78075 11.406 9.20791 12.4269 8.93783 13.544C8.66776 14.661 8.71089 15.8309 9.0625 16.925L25.3969 66.95C25.7956 68.147 26.5472 69.1953 27.553 69.9571C28.5587 70.7188 29.7715 71.1584 31.0318 71.2179C32.292 71.2774 33.5408 70.9541 34.6139 70.2905C35.6869 69.6269 36.534 68.6541 37.0438 67.5C37.0781 67.4219 37.1094 67.3438 37.1375 67.2625L41.3594 55.4125L55.9937 70.0437C57.1658 71.2154 58.7552 71.8737 60.4125 71.8737C62.0698 71.8737 63.6592 71.2154 64.8313 70.0437L70.0469 64.8313C70.6275 64.2509 71.0881 63.5617 71.4024 62.8033C71.7166 62.0448 71.8784 61.2319 71.8784 60.4109C71.8784 59.59 71.7166 58.777 71.4024 58.0186C71.0881 57.2601 70.6275 56.571 70.0469 55.9906ZM60.4125 63.8562L45.2625 48.7063C44.0907 47.5341 42.5012 46.8754 40.8437 46.875C40.4527 46.8758 40.0625 46.9124 39.6781 46.9844C38.6777 47.1732 37.7385 47.6035 36.9422 48.238C36.146 48.8725 35.5168 49.6919 35.1094 50.625C35.075 50.7031 35.0469 50.7812 35.0156 50.8625L31.375 61.0938L16.9656 16.9656L61.0938 31.375L50.8719 35.0156C50.7937 35.0438 50.7125 35.075 50.6344 35.1094C49.7006 35.5158 48.8803 36.1443 48.2449 36.9401C47.6094 37.7359 47.1781 38.6749 46.9883 39.6754C46.7985 40.676 46.8561 41.7077 47.1561 42.6809C47.4561 43.6541 47.9893 44.5393 48.7094 45.2594L63.8594 60.4094L60.4125 63.8562ZM26.25 5V3.75C26.25 2.75544 26.6451 1.80161 27.3483 1.09835C28.0516 0.395088 29.0054 0 30 0C30.9946 0 31.9484 0.395088 32.6517 1.09835C33.3549 1.80161 33.75 2.75544 33.75 3.75V5C33.75 5.99456 33.3549 6.94839 32.6517 7.65165C31.9484 8.35491 30.9946 8.75 30 8.75C29.0054 8.75 28.0516 8.35491 27.3483 7.65165C26.6451 6.94839 26.25 5.99456 26.25 5ZM3.75 33.75C2.75544 33.75 1.80161 33.3549 1.09835 32.6517C0.395088 31.9484 0 30.9946 0 30C0 29.0054 0.395088 28.0516 1.09835 27.3483C1.80161 26.6451 2.75544 26.25 3.75 26.25H5C5.99456 26.25 6.94839 26.6451 7.65165 27.3483C8.35491 28.0516 8.75 29.0054 8.75 30C8.75 30.9946 8.35491 31.9484 7.65165 32.6517C6.94839 33.3549 5.99456 33.75 5 33.75H3.75ZM37.6938 7.56562L38.9438 3.81563C39.266 2.88232 39.9433 2.11375 40.8287 1.67673C41.7141 1.23972 42.7361 1.16953 43.6729 1.48139C44.6097 1.79325 45.3857 2.462 45.8325 3.34249C46.2793 4.22298 46.3608 5.24416 46.0594 6.18438L44.8094 9.93438C44.4872 10.8677 43.8098 11.6363 42.9245 12.0733C42.0391 12.5103 41.0171 12.5805 40.0802 12.2686C39.1434 11.9567 38.3674 11.288 37.9206 10.4075C37.4738 9.52702 37.3923 8.50584 37.6938 7.56562ZM12.3094 40.0656C12.623 41.0088 12.5494 42.0379 12.1046 42.9269C11.6599 43.8158 10.8804 44.4917 9.9375 44.8063L6.1875 46.0563C5.71689 46.2266 5.21694 46.3011 4.71711 46.2752C4.21727 46.2494 3.72767 46.1237 3.27716 45.9057C2.82665 45.6876 2.42435 45.3816 2.09397 45.0056C1.76359 44.6297 1.51181 44.1914 1.35347 43.7166C1.19514 43.2418 1.13345 42.7401 1.17204 42.2411C1.21064 41.7421 1.34874 41.2558 1.5782 40.811C1.80766 40.3662 2.12384 39.9718 2.50811 39.6511C2.89237 39.3305 3.33695 39.0899 3.81563 38.9438L7.56562 37.6938C8.03284 37.538 8.52617 37.4758 9.01743 37.5107C9.5087 37.5456 9.98827 37.6769 10.4288 37.8971C10.8693 38.1174 11.2621 38.4222 11.5848 38.7943C11.9074 39.1664 12.1537 39.5984 12.3094 40.0656Z" fill="#3730A3"/>
</svg>
