<svg width="56" height="56" viewBox="0 0 56 56" fill="none" xmlns="http://www.w3.org/2000/svg">
<rect width="56" height="56" rx="16" fill="#3730A3" fill-opacity="0.1"/>
<path d="M41.415 21.1712L34.8287 14.5862C34.643 14.4004 34.4225 14.2531 34.1798 14.1525C33.9371 14.052 33.677 14.0002 33.4143 14.0002C33.1517 14.0002 32.8916 14.052 32.6489 14.1525C32.4062 14.2531 32.1857 14.4004 32 14.5862L14.585 31.9999C14.3992 32.1857 14.2518 32.4062 14.1513 32.6488C14.0508 32.8915 13.999 33.1516 13.999 33.4143C13.999 33.677 14.0508 33.9371 14.1513 34.1798C14.2518 34.4225 14.3992 34.643 14.585 34.8287L21.1712 41.4137C21.3569 41.5995 21.5774 41.7468 21.8201 41.8474C22.0628 41.9479 22.3229 41.9996 22.5856 41.9996C22.8483 41.9996 23.1084 41.9479 23.3511 41.8474C23.5938 41.7468 23.8142 41.5995 24 41.4137L41.415 23.9999C41.6007 23.8142 41.7481 23.5937 41.8486 23.351C41.9492 23.1084 42.0009 22.8482 42.0009 22.5856C42.0009 22.3229 41.9492 22.0628 41.8486 21.8201C41.7481 21.5774 41.6007 21.3569 41.415 21.1712ZM22.585 39.9999L16 33.4137L20 29.4137L23.2925 32.7074C23.3854 32.8003 23.4957 32.874 23.6171 32.9243C23.7385 32.9746 23.8686 33.0005 24 33.0005C24.1314 33.0005 24.2615 32.9746 24.3829 32.9243C24.5043 32.874 24.6146 32.8003 24.7075 32.7074C24.8004 32.6145 24.8741 32.5042 24.9244 32.3828C24.9746 32.2614 25.0005 32.1313 25.0005 31.9999C25.0005 31.8685 24.9746 31.7384 24.9244 31.617C24.8741 31.4956 24.8004 31.3853 24.7075 31.2924L21.4137 27.9999L24 25.4137L27.2925 28.7074C27.4801 28.8951 27.7346 29.0005 28 29.0005C28.2653 29.0005 28.5198 28.8951 28.7075 28.7074C28.8951 28.5198 29.0005 28.2653 29.0005 27.9999C29.0005 27.7346 28.8951 27.4801 28.7075 27.2924L25.4137 23.9999L28 21.4137L31.2925 24.7074C31.3854 24.8003 31.4957 24.874 31.6171 24.9243C31.7385 24.9746 31.8686 25.0005 32 25.0005C32.1314 25.0005 32.2615 24.9746 32.3829 24.9243C32.5043 24.874 32.6146 24.8003 32.7075 24.7074C32.8004 24.6145 32.8741 24.5042 32.9244 24.3828C32.9746 24.2614 33.0005 24.1313 33.0005 23.9999C33.0005 23.8685 32.9746 23.7384 32.9244 23.617C32.8741 23.4956 32.8004 23.3853 32.7075 23.2924L29.4137 19.9999L33.4137 15.9999L40 22.5862L22.585 39.9999Z" fill="#3730A3"/>
</svg>
