<svg width="56" height="56" viewBox="0 0 56 56" fill="none" xmlns="http://www.w3.org/2000/svg">
<rect width="56" height="56" rx="16" fill="#3730A3" fill-opacity="0.1"/>
<path d="M18 20C18 19.7348 18.1053 19.4804 18.2929 19.2929C18.4804 19.1054 18.7348 19 19 19H21V17C21 16.7348 21.1053 16.4804 21.2929 16.2929C21.4804 16.1054 21.7348 16 22 16C22.2652 16 22.5195 16.1054 22.7071 16.2929C22.8946 16.4804 23 16.7348 23 17V19H25C25.2652 19 25.5195 19.1054 25.7071 19.2929C25.8946 19.4804 26 19.7348 26 20C26 20.2652 25.8946 20.5196 25.7071 20.7071C25.5195 20.8946 25.2652 21 25 21H23V23C23 23.2652 22.8946 23.5196 22.7071 23.7071C22.5195 23.8946 22.2652 24 22 24C21.7348 24 21.4804 23.8946 21.2929 23.7071C21.1053 23.5196 21 23.2652 21 23V21H19C18.7348 21 18.4804 20.8946 18.2929 20.7071C18.1053 20.5196 18 20.2652 18 20ZM35 36H34V35C34 34.7348 33.8946 34.4804 33.7071 34.2929C33.5195 34.1054 33.2652 34 33 34C32.7348 34 32.4804 34.1054 32.2929 34.2929C32.1053 34.4804 32 34.7348 32 35V36H31C30.7348 36 30.4804 36.1054 30.2929 36.2929C30.1053 36.4804 30 36.7348 30 37C30 37.2652 30.1053 37.5196 30.2929 37.7071C30.4804 37.8946 30.7348 38 31 38H32V39C32 39.2652 32.1053 39.5196 32.2929 39.7071C32.4804 39.8946 32.7348 40 33 40C33.2652 40 33.5195 39.8946 33.7071 39.7071C33.8946 39.5196 34 39.2652 34 39V38H35C35.2652 38 35.5195 37.8946 35.7071 37.7071C35.8946 37.5196 36 37.2652 36 37C36 36.7348 35.8946 36.4804 35.7071 36.2929C35.5195 36.1054 35.2652 36 35 36ZM42 30H40V28C40 27.7348 39.8946 27.4804 39.7071 27.2929C39.5195 27.1054 39.2652 27 39 27C38.7348 27 38.4804 27.1054 38.2929 27.2929C38.1053 27.4804 38 27.7348 38 28V30H36C35.7348 30 35.4804 30.1054 35.2929 30.2929C35.1053 30.4804 35 30.7348 35 31C35 31.2652 35.1053 31.5196 35.2929 31.7071C35.4804 31.8946 35.7348 32 36 32H38V34C38 34.2652 38.1053 34.5196 38.2929 34.7071C38.4804 34.8946 38.7348 35 39 35C39.2652 35 39.5195 34.8946 39.7071 34.7071C39.8946 34.5196 40 34.2652 40 34V32H42C42.2652 32 42.5195 31.8946 42.7071 31.7071C42.8946 31.5196 43 31.2652 43 31C43 30.7348 42.8946 30.4804 42.7071 30.2929C42.5195 30.1054 42.2652 30 42 30ZM39.4137 22L22 39.4137C21.6249 39.7885 21.1164 39.9991 20.5862 39.9991C20.056 39.9991 19.5475 39.7885 19.1725 39.4137L16.585 36.8288C16.3992 36.643 16.2518 36.4225 16.1513 36.1798C16.0508 35.9372 15.999 35.6771 15.999 35.4144C15.999 35.1517 16.0508 34.8916 16.1513 34.6489C16.2518 34.4062 16.3992 34.1857 16.585 34L34 16.5862C34.1857 16.4005 34.4062 16.2531 34.6489 16.1526C34.8916 16.052 35.1517 16.0003 35.4143 16.0003C35.677 16.0003 35.9371 16.052 36.1798 16.1526C36.4225 16.2531 36.643 16.4005 36.8287 16.5862L39.4137 19.1712C39.5995 19.357 39.7468 19.5775 39.8474 19.8202C39.9479 20.0628 39.9997 20.3229 39.9997 20.5856C39.9997 20.8483 39.9479 21.1084 39.8474 21.3511C39.7468 21.5938 39.5995 21.8143 39.4137 22ZM32.585 26L30 23.4137L18 35.4137L20.585 38L32.585 26ZM38 20.5863L35.4137 18L31.4137 22L34 24.5863L38 20.5863Z" fill="#3730A3"/>
</svg>
