<svg width="56" height="56" viewBox="0 0 56 56" fill="none" xmlns="http://www.w3.org/2000/svg">
<rect width="56" height="56" rx="16" fill="#3730A3" fill-opacity="0.1"/>
<path d="M40 21H38V20C38 19.2044 37.6839 18.4413 37.1213 17.8787C36.5587 17.3161 35.7956 17 35 17H17C16.2044 17 15.4413 17.3161 14.8787 17.8787C14.3161 18.4413 14 19.2044 14 20V32C14 32.7956 14.3161 33.5587 14.8787 34.1213C15.4413 34.6839 16.2044 35 17 35H31V36C31 36.7956 31.3161 37.5587 31.8787 38.1213C32.4413 38.6839 33.2044 39 34 39H40C40.7956 39 41.5587 38.6839 42.1213 38.1213C42.6839 37.5587 43 36.7956 43 36V24C43 23.2044 42.6839 22.4413 42.1213 21.8787C41.5587 21.3161 40.7956 21 40 21ZM17 33C16.7348 33 16.4804 32.8946 16.2929 32.7071C16.1054 32.5196 16 32.2652 16 32V20C16 19.7348 16.1054 19.4804 16.2929 19.2929C16.4804 19.1054 16.7348 19 17 19H35C35.2652 19 35.5196 19.1054 35.7071 19.2929C35.8946 19.4804 36 19.7348 36 20V21H34C33.2044 21 32.4413 21.3161 31.8787 21.8787C31.3161 22.4413 31 23.2044 31 24V33H17ZM41 36C41 36.2652 40.8946 36.5196 40.7071 36.7071C40.5196 36.8946 40.2652 37 40 37H34C33.7348 37 33.4804 36.8946 33.2929 36.7071C33.1054 36.5196 33 36.2652 33 36V24C33 23.7348 33.1054 23.4804 33.2929 23.2929C33.4804 23.1054 33.7348 23 34 23H40C40.2652 23 40.5196 23.1054 40.7071 23.2929C40.8946 23.4804 41 23.7348 41 24V36ZM29 38C29 38.2652 28.8946 38.5196 28.7071 38.7071C28.5196 38.8946 28.2652 39 28 39H23C22.7348 39 22.4804 38.8946 22.2929 38.7071C22.1054 38.5196 22 38.2652 22 38C22 37.7348 22.1054 37.4804 22.2929 37.2929C22.4804 37.1054 22.7348 37 23 37H28C28.2652 37 28.5196 37.1054 28.7071 37.2929C28.8946 37.4804 29 37.7348 29 38ZM39 26C39 26.2652 38.8946 26.5196 38.7071 26.7071C38.5196 26.8946 38.2652 27 38 27H36C35.7348 27 35.4804 26.8946 35.2929 26.7071C35.1054 26.5196 35 26.2652 35 26C35 25.7348 35.1054 25.4804 35.2929 25.2929C35.4804 25.1054 35.7348 25 36 25H38C38.2652 25 38.5196 25.1054 38.7071 25.2929C38.8946 25.4804 39 25.7348 39 26Z" fill="#3730A3"/>
</svg>
