<svg width="80" height="80" viewBox="0 0 80 80" fill="none" xmlns="http://www.w3.org/2000/svg">
<path d="M74.4223 22.0437L57.9567 5.58123C57.3763 5.0006 56.6872 4.54 55.9287 4.22575C55.1703 3.9115 54.3573 3.74976 53.5364 3.74976C52.7154 3.74976 51.9024 3.9115 51.144 4.22575C50.3855 4.54 49.6964 5.0006 49.116 5.58123L5.57855 49.1156C4.99791 49.696 4.53732 50.3851 4.22307 51.1436C3.90882 51.902 3.74707 52.7149 3.74707 53.5359C3.74707 54.3569 3.90882 55.1698 4.22307 55.9283C4.53732 56.6867 4.99791 57.3758 5.57855 57.9562L22.0442 74.4187C22.6246 74.9994 23.3137 75.46 24.0721 75.7742C24.8306 76.0885 25.6435 76.2502 26.4645 76.2502C27.2855 76.2502 28.0984 76.0885 28.8568 75.7742C29.6153 75.46 30.3044 74.9994 30.8848 74.4187L74.4223 30.8844C75.0029 30.304 75.4635 29.6149 75.7778 28.8564C76.092 28.098 76.2538 27.285 76.2538 26.464C76.2538 25.6431 76.092 24.8301 75.7778 24.0717C75.4635 23.3132 75.0029 22.6241 74.4223 22.0437ZM26.4629 68.2312L11.7754 53.5437L20.0004 45.3125L27.3504 52.6625C28.0549 53.367 29.0104 53.7627 30.0067 53.7627C31.003 53.7627 31.9584 53.367 32.6629 52.6625C33.3674 51.958 33.7632 51.0025 33.7632 50.0062C33.7632 49.0099 33.3674 48.0545 32.6629 47.35L25.3129 40L30.0004 35.3125L37.3473 42.6625C38.0518 43.367 39.0073 43.7627 40.0035 43.7627C40.9998 43.7627 41.9553 43.367 42.6598 42.6625C43.3643 41.958 43.7601 41.0025 43.7601 40.0062C43.7601 39.0099 43.3643 38.0545 42.6598 37.35L35.3129 30L40.0004 25.3125L47.3504 32.6625C48.0549 33.367 49.0104 33.7627 50.0067 33.7627C51.003 33.7627 51.9584 33.367 52.6629 32.6625C53.3674 31.958 53.7632 31.0025 53.7632 30.0062C53.7632 29.0099 53.3674 28.0545 52.6629 27.35L45.3129 20L53.5473 11.7687L68.2348 26.4562L26.4629 68.2312Z" fill="#3730A3"/>
</svg>
