<svg width="96" height="96" viewBox="0 0 96 96" fill="none" xmlns="http://www.w3.org/2000/svg">
<path d="M68.1225 54.8775C68.4014 55.1561 68.6227 55.487 68.7737 55.8512C68.9247 56.2154 69.0024 56.6058 69.0024 57C69.0024 57.3942 68.9247 57.7846 68.7737 58.1488C68.6227 58.513 68.4014 58.8439 68.1225 59.1225L59.1225 68.1225C58.5596 68.6854 57.7961 69.0017 57 69.0017C56.2039 69.0017 55.4404 68.6854 54.8775 68.1225C54.3146 67.5596 53.9983 66.7961 53.9983 66C53.9983 65.2039 54.3146 64.4404 54.8775 63.8775L61.7588 57L54.8775 50.1225C54.3146 49.5596 53.9983 48.7961 53.9983 48C53.9983 47.2039 54.3146 46.4404 54.8775 45.8775C55.4404 45.3146 56.2039 44.9983 57 44.9983C57.7961 44.9983 58.5596 45.3146 59.1225 45.8775L68.1225 54.8775ZM41.1225 45.8775C40.8439 45.5986 40.513 45.3773 40.1488 45.2263C39.7846 45.0753 39.3942 44.9976 39 44.9976C38.6058 44.9976 38.2154 45.0753 37.8512 45.2263C37.487 45.3773 37.1561 45.5986 36.8775 45.8775L27.8775 54.8775C27.5986 55.1561 27.3773 55.487 27.2263 55.8512C27.0753 56.2154 26.9976 56.6058 26.9976 57C26.9976 57.3942 27.0753 57.7846 27.2263 58.1488C27.3773 58.513 27.5986 58.8439 27.8775 59.1225L36.8775 68.1225C37.1562 68.4012 37.4871 68.6223 37.8513 68.7732C38.2155 68.924 38.6058 69.0017 39 69.0017C39.3942 69.0017 39.7845 68.924 40.1487 68.7732C40.5129 68.6223 40.8438 68.4012 41.1225 68.1225C41.4012 67.8438 41.6223 67.5129 41.7732 67.1487C41.924 66.7845 42.0017 66.3942 42.0017 66C42.0017 65.6058 41.924 65.2155 41.7732 64.8513C41.6223 64.4871 41.4012 64.1562 41.1225 63.8775L34.2412 57L41.1225 50.1225C41.4014 49.8439 41.6227 49.513 41.7737 49.1488C41.9247 48.7846 42.0024 48.3942 42.0024 48C42.0024 47.6058 41.9247 47.2154 41.7737 46.8512C41.6227 46.487 41.4014 46.1561 41.1225 45.8775ZM81 33V81C81 82.5913 80.3679 84.1174 79.2426 85.2426C78.1174 86.3679 76.5913 87 75 87H21C19.4087 87 17.8826 86.3679 16.7574 85.2426C15.6321 84.1174 15 82.5913 15 81V15C15 13.4087 15.6321 11.8826 16.7574 10.7574C17.8826 9.63214 19.4087 9 21 9H57C57.3941 8.99969 57.7844 9.07703 58.1486 9.22759C58.5127 9.37816 58.8437 9.599 59.1225 9.8775L80.1225 30.8775C80.401 31.1563 80.6218 31.4873 80.7724 31.8515C80.923 32.2156 81.0003 32.6059 81 33ZM60 30H70.7588L60 19.2413V30ZM75 81V36H57C56.2044 36 55.4413 35.6839 54.8787 35.1213C54.3161 34.5587 54 33.7956 54 33V15H21V81H75Z" fill="#3730A3"/>
</svg>
