<svg width="80" height="80" viewBox="0 0 80 80" fill="none" xmlns="http://www.w3.org/2000/svg">
<path d="M30.0001 22.8124L10.6438 39.9999L30.0001 57.1874C30.746 57.8505 31.198 58.7827 31.2566 59.779C31.3152 60.7753 30.9756 61.754 30.3126 62.4999C29.6495 63.2459 28.7173 63.6978 27.721 63.7564C26.7248 63.8151 25.746 63.4755 25.0001 62.8124L2.50008 42.8124C2.10105 42.4605 1.78148 42.0278 1.56258 41.5428C1.34368 41.0579 1.23047 40.532 1.23047 39.9999C1.23047 39.4679 1.34368 38.942 1.56258 38.4571C1.78148 37.9721 2.10105 37.5394 2.50008 37.1874L25.0001 17.1874C25.746 16.5244 26.7248 16.1848 27.721 16.2434C28.7173 16.302 29.6495 16.754 30.3126 17.4999C30.9756 18.2459 31.3152 19.2246 31.2566 20.2209C31.198 21.2172 30.746 22.1494 30.0001 22.8124ZM77.5001 37.1874L55.0001 17.1874C54.6307 16.8591 54.2003 16.6068 53.7335 16.4448C53.2666 16.2829 52.7724 16.2144 52.2791 16.2434C51.7858 16.2725 51.303 16.3984 50.8584 16.6139C50.4137 16.8295 50.0159 17.1306 49.6876 17.4999C49.3593 17.8693 49.1069 18.2997 48.945 18.7665C48.783 19.2334 48.7146 19.7276 48.7436 20.2209C48.7726 20.7142 48.8985 21.197 49.1141 21.6416C49.3297 22.0863 49.6307 22.4841 50.0001 22.8124L69.347 39.9999L50.0001 57.1874C49.6307 57.5157 49.3297 57.9136 49.1141 58.3582C48.8985 58.8029 48.7726 59.2857 48.7436 59.779C48.7146 60.2723 48.783 60.7665 48.945 61.2333C49.1069 61.7002 49.3593 62.1306 49.6876 62.4999C50.0159 62.8693 50.4137 63.1703 50.8584 63.3859C51.303 63.6015 51.7858 63.7274 52.2791 63.7564C52.7724 63.7855 53.2666 63.717 53.7335 63.5551C54.2003 63.3931 54.6307 63.1407 55.0001 62.8124L77.5001 42.8124C77.8991 42.4605 78.2187 42.0278 78.4376 41.5428C78.6565 41.0579 78.7697 40.532 78.7697 39.9999C78.7697 39.4679 78.6565 38.942 78.4376 38.4571C78.2187 37.9721 77.8991 37.5394 77.5001 37.1874Z" fill="#3730A3"/>
</svg>
