<svg width="96" height="96" viewBox="0 0 96 96" fill="none" xmlns="http://www.w3.org/2000/svg">
<path d="M33.0002 9V6C33.0002 5.20435 33.3163 4.44129 33.8789 3.87868C34.4415 3.31607 35.2046 3 36.0002 3C36.7959 3 37.559 3.31607 38.1216 3.87868C38.6842 4.44129 39.0002 5.20435 39.0002 6V9C39.0002 9.79565 38.6842 10.5587 38.1216 11.1213C37.559 11.6839 36.7959 12 36.0002 12C35.2046 12 34.4415 11.6839 33.8789 11.1213C33.3163 10.5587 33.0002 9.79565 33.0002 9ZM6.00025 39H9.00025C9.7959 39 10.559 38.6839 11.1216 38.1213C11.6842 37.5587 12.0002 36.7957 12.0002 36C12.0002 35.2044 11.6842 34.4413 11.1216 33.8787C10.559 33.3161 9.7959 33 9.00025 33H6.00025C5.2046 33 4.44154 33.3161 3.87893 33.8787C3.31632 34.4413 3.00025 35.2044 3.00025 36C3.00025 36.7957 3.31632 37.5587 3.87893 38.1213C4.44154 38.6839 5.2046 39 6.00025 39ZM46.6577 14.685C47.0103 14.8616 47.3942 14.9669 47.7875 14.995C48.1808 15.023 48.5757 14.9733 48.9498 14.8486C49.3238 14.7239 49.6696 14.5267 49.9674 14.2683C50.2652 14.0099 50.5091 13.6953 50.6852 13.3425L53.6852 7.3425C54.0413 6.63089 54.1001 5.80699 53.8487 5.05204C53.5973 4.29709 53.0562 3.67293 52.3446 3.31688C51.633 2.96082 50.8091 2.90204 50.0542 3.15346C49.2992 3.40487 48.6751 3.94589 48.319 4.6575L45.319 10.6575C45.1423 11.0098 45.0368 11.3935 45.0084 11.7866C44.9801 12.1798 45.0295 12.5746 45.1538 12.9487C45.2781 13.3227 45.475 13.6685 45.733 13.9665C45.9911 14.2644 46.3053 14.5086 46.6577 14.685ZM10.6577 45.3188L4.65775 48.3188C3.94614 48.6748 3.40512 49.299 3.1537 50.0539C2.90228 50.8089 2.96107 51.6328 3.31712 52.3444C3.67318 53.056 4.29733 53.597 5.05228 53.8484C5.80723 54.0998 6.63114 54.0411 7.34275 53.685L13.3427 50.685C13.6951 50.5087 14.0093 50.2647 14.2673 49.967C14.5254 49.6693 14.7223 49.3237 14.8468 48.9498C14.9713 48.576 15.0209 48.1814 14.9929 47.7884C14.9648 47.3954 14.8597 47.0117 14.6834 46.6594C14.5071 46.307 14.2631 45.9928 13.9654 45.7348C13.6677 45.4767 13.322 45.2798 12.9482 45.1553C12.5744 45.0308 12.1797 44.9812 11.7867 45.0092C11.3937 45.0373 11.0101 45.1425 10.6577 45.3188ZM82.2415 69C82.7988 69.5572 83.2409 70.2187 83.5425 70.9467C83.8441 71.6748 83.9993 72.4551 83.9993 73.2431C83.9993 74.0312 83.8441 74.8115 83.5425 75.5395C83.2409 76.2676 82.7988 76.9291 82.2415 77.4863L77.4865 82.2413C76.9293 82.7985 76.2678 83.2406 75.5398 83.5422C74.8117 83.8439 74.0314 83.9991 73.2434 83.9991C72.4553 83.9991 71.675 83.8439 70.947 83.5422C70.2189 83.2406 69.5574 82.7985 69.0002 82.2413L49.7627 63L43.1252 80.2838C43.1252 80.3213 43.0952 80.3625 43.0765 80.4038C42.6174 81.4742 41.8535 82.3859 40.8799 83.0254C39.9064 83.6649 38.7663 84.0038 37.6015 84H37.3052C36.0905 83.9486 34.9208 83.5254 33.9544 82.7876C32.988 82.0499 32.2714 81.0332 31.9015 79.875L12.3002 19.845C11.9638 18.7951 11.923 17.6729 12.1825 16.6014C12.442 15.5299 12.9917 14.5506 13.7713 13.7711C14.5509 12.9915 15.5301 12.4418 16.6016 12.1823C17.6731 11.9228 18.7954 11.9635 19.8452 12.3L79.8752 31.9013C81.0226 32.285 82.027 33.0067 82.7569 33.9715C83.4868 34.9364 83.9079 36.0993 83.9651 37.3077C84.0223 38.5162 83.7128 39.7137 83.0773 40.7431C82.4418 41.7726 81.5099 42.5858 80.404 43.0763L80.284 43.125L63.0002 49.7588L82.2415 69ZM78.0002 73.2413L58.759 54C58.0664 53.3087 57.5534 52.4585 57.2648 51.5235C56.9761 50.5885 56.9205 49.5971 57.1028 48.6357C57.2851 47.6743 57.6997 46.772 58.3107 46.0076C58.9216 45.2432 59.7102 44.6398 60.6077 44.25L60.7277 44.1975L77.959 37.5825L18.0002 18L37.5752 77.9475L44.194 60.6975C44.194 60.6563 44.224 60.615 44.2427 60.5738C44.6327 59.6769 45.2359 58.8889 46 58.2785C46.764 57.668 47.6657 57.2536 48.6265 57.0713C48.9976 57.0024 49.3741 56.9673 49.7515 56.9663C51.3412 56.968 52.8653 57.6005 53.989 58.725L73.2415 78L78.0002 73.2413Z" fill="#3730A3"/>
</svg>
