<svg width="80" height="80" viewBox="0 0 80 80" fill="none" xmlns="http://www.w3.org/2000/svg">
<path d="M22.3998 30.3812L10.8561 40L22.3998 49.6187C22.7827 49.9324 23.0996 50.3189 23.3324 50.7557C23.5651 51.1926 23.7091 51.6712 23.756 52.1639C23.8029 52.6567 23.7517 53.1538 23.6055 53.6267C23.4594 54.0996 23.221 54.5389 22.9042 54.9192C22.5874 55.2995 22.1984 55.6134 21.7598 55.8426C21.3211 56.0719 20.8413 56.212 20.3482 56.255C19.8551 56.2979 19.3584 56.2428 18.8867 56.0929C18.4149 55.9429 17.9776 55.701 17.5998 55.3812L2.59981 42.8812C2.17735 42.5293 1.83744 42.0887 1.60418 41.5908C1.37092 41.0929 1.25 40.5498 1.25 40C1.25 39.4501 1.37092 38.907 1.60418 38.4091C1.83744 37.9112 2.17735 37.4706 2.59981 37.1187L17.5998 24.6187C18.365 23.9916 19.3471 23.6923 20.332 23.786C21.3169 23.8797 22.2249 24.3589 22.8581 25.1191C23.4913 25.8793 23.7985 26.8589 23.7126 27.8445C23.6268 28.8302 23.1549 29.7419 22.3998 30.3812ZM77.3998 37.1187L62.3998 24.6187C62.022 24.2989 61.5847 24.057 61.113 23.907C60.6413 23.7571 60.1445 23.702 59.6514 23.7449C59.1583 23.7879 58.6786 23.928 58.2399 24.1573C57.8012 24.3865 57.4122 24.7004 57.0954 25.0807C56.7787 25.461 56.5403 25.9003 56.3941 26.3732C56.2479 26.8461 56.1968 27.3432 56.2437 27.836C56.2905 28.3288 56.4345 28.8073 56.6673 29.2442C56.9 29.681 57.217 30.0675 57.5998 30.3812L69.1436 40L57.5998 49.6187C57.217 49.9324 56.9 50.3189 56.6673 50.7557C56.4345 51.1926 56.2905 51.6712 56.2437 52.1639C56.1968 52.6567 56.2479 53.1538 56.3941 53.6267C56.5403 54.0996 56.7787 54.5389 57.0954 54.9192C57.4122 55.2995 57.8012 55.6134 58.2399 55.8426C58.6786 56.0719 59.1583 56.212 59.6514 56.255C60.1445 56.2979 60.6413 56.2428 61.113 56.0929C61.5847 55.9429 62.022 55.701 62.3998 55.3812L77.3998 42.8812C77.8223 42.5293 78.1622 42.0887 78.3955 41.5908C78.6287 41.0929 78.7496 40.5498 78.7496 40C78.7496 39.4501 78.6287 38.907 78.3955 38.4091C78.1622 37.9112 77.8223 37.4706 77.3998 37.1187ZM51.2811 8.97495C50.8182 8.80661 50.3266 8.73111 49.8345 8.75277C49.3425 8.77443 48.8595 8.89282 48.4131 9.10119C47.9668 9.30955 47.5659 9.60379 47.2333 9.96712C46.9008 10.3305 46.643 10.7557 46.4748 11.2187L26.4748 66.2187C26.1358 67.1532 26.1817 68.1841 26.6024 69.0847C27.0232 69.9854 27.7843 70.6821 28.7186 71.0218C29.1287 71.1732 29.5626 71.2505 29.9998 71.25C30.7697 71.2501 31.5211 71.0132 32.1517 70.5716C32.7823 70.1299 33.2618 69.5048 33.5248 68.7812L53.5248 13.7812C53.6932 13.3183 53.7687 12.8268 53.747 12.3347C53.7253 11.8426 53.6069 11.3596 53.3986 10.9133C53.1902 10.4669 52.896 10.066 52.5326 9.73347C52.1693 9.40089 51.744 9.14314 51.2811 8.97495Z" fill="#3730A3"/>
</svg>
