<svg width="80" height="80" viewBox="0 0 80 80" fill="none" xmlns="http://www.w3.org/2000/svg">
<path d="M70 22.5H66.25V20C66.25 17.6794 65.3281 15.4538 63.6872 13.8128C62.0462 12.1719 59.8206 11.25 57.5 11.25H12.5C10.1794 11.25 7.95376 12.1719 6.31282 13.8128C4.67187 15.4538 3.75 17.6794 3.75 20V47.5C3.75 49.8206 4.67187 52.0462 6.31282 53.6872C7.95376 55.3281 10.1794 56.25 12.5 56.25H42.5V60C42.5 62.3206 43.4219 64.5462 45.0628 66.1872C46.7038 67.8281 48.9294 68.75 51.25 68.75H70C72.3206 68.75 74.5462 67.8281 76.1872 66.1872C77.8281 64.5462 78.75 62.3206 78.75 60V31.25C78.75 28.9294 77.8281 26.7038 76.1872 25.0628C74.5462 23.4219 72.3206 22.5 70 22.5ZM12.5 48.75C12.1685 48.75 11.8505 48.6183 11.6161 48.3839C11.3817 48.1495 11.25 47.8315 11.25 47.5V20C11.25 19.6685 11.3817 19.3505 11.6161 19.1161C11.8505 18.8817 12.1685 18.75 12.5 18.75H57.5C57.8315 18.75 58.1495 18.8817 58.3839 19.1161C58.6183 19.3505 58.75 19.6685 58.75 20V22.5H51.25C48.9294 22.5 46.7038 23.4219 45.0628 25.0628C43.4219 26.7038 42.5 28.9294 42.5 31.25V48.75H12.5ZM71.25 60C71.25 60.3315 71.1183 60.6495 70.8839 60.8839C70.6495 61.1183 70.3315 61.25 70 61.25H51.25C50.9185 61.25 50.6005 61.1183 50.3661 60.8839C50.1317 60.6495 50 60.3315 50 60V31.25C50 30.9185 50.1317 30.6005 50.3661 30.3661C50.6005 30.1317 50.9185 30 51.25 30H70C70.3315 30 70.6495 30.1317 70.8839 30.3661C71.1183 30.6005 71.25 30.9185 71.25 31.25V60ZM38.75 65C38.75 65.9946 38.3549 66.9484 37.6517 67.6516C36.9484 68.3549 35.9946 68.75 35 68.75H27.5C26.5054 68.75 25.5516 68.3549 24.8483 67.6516C24.1451 66.9484 23.75 65.9946 23.75 65C23.75 64.0054 24.1451 63.0516 24.8483 62.3484C25.5516 61.6451 26.5054 61.25 27.5 61.25H35C35.9946 61.25 36.9484 61.6451 37.6517 62.3484C38.3549 63.0516 38.75 64.0054 38.75 65ZM66.25 38.75C66.25 39.7446 65.8549 40.6984 65.1516 41.4016C64.4484 42.1049 63.4946 42.5 62.5 42.5H58.75C57.7554 42.5 56.8016 42.1049 56.0984 41.4016C55.3951 40.6984 55 39.7446 55 38.75C55 37.7554 55.3951 36.8016 56.0984 36.0983C56.8016 35.3951 57.7554 35 58.75 35H62.5C63.4946 35 64.4484 35.3951 65.1516 36.0983C65.8549 36.8016 66.25 37.7554 66.25 38.75Z" fill="#3730A3"/>
</svg>
