<svg width="96" height="96" viewBox="0 0 96 96" fill="none" xmlns="http://www.w3.org/2000/svg">
<path d="M84 27H78V24C78 21.6131 77.0518 19.3239 75.364 17.636C73.6761 15.9482 71.3869 15 69 15H15C12.6131 15 10.3239 15.9482 8.63604 17.636C6.94821 19.3239 6 21.6131 6 24V60C6 62.3869 6.94821 64.6761 8.63604 66.364C10.3239 68.0518 12.6131 69 15 69H57V72C57 74.3869 57.9482 76.6761 59.636 78.364C61.3239 80.0518 63.6131 81 66 81H84C86.3869 81 88.6761 80.0518 90.364 78.364C92.0518 76.6761 93 74.3869 93 72V36C93 33.6131 92.0518 31.3239 90.364 29.636C88.6761 27.9482 86.3869 27 84 27ZM15 63C14.2044 63 13.4413 62.6839 12.8787 62.1213C12.3161 61.5587 12 60.7956 12 60V24C12 23.2044 12.3161 22.4413 12.8787 21.8787C13.4413 21.3161 14.2044 21 15 21H69C69.7956 21 70.5587 21.3161 71.1213 21.8787C71.6839 22.4413 72 23.2044 72 24V27H66C63.6131 27 61.3239 27.9482 59.636 29.636C57.9482 31.3239 57 33.6131 57 36V63H15ZM87 72C87 72.7956 86.6839 73.5587 86.1213 74.1213C85.5587 74.6839 84.7956 75 84 75H66C65.2044 75 64.4413 74.6839 63.8787 74.1213C63.3161 73.5587 63 72.7956 63 72V36C63 35.2044 63.3161 34.4413 63.8787 33.8787C64.4413 33.3161 65.2044 33 66 33H84C84.7956 33 85.5587 33.3161 86.1213 33.8787C86.6839 34.4413 87 35.2044 87 36V72ZM51 78C51 78.7956 50.6839 79.5587 50.1213 80.1213C49.5587 80.6839 48.7956 81 48 81H33C32.2044 81 31.4413 80.6839 30.8787 80.1213C30.3161 79.5587 30 78.7956 30 78C30 77.2044 30.3161 76.4413 30.8787 75.8787C31.4413 75.3161 32.2044 75 33 75H48C48.7956 75 49.5587 75.3161 50.1213 75.8787C50.6839 76.4413 51 77.2044 51 78ZM81 42C81 42.7956 80.6839 43.5587 80.1213 44.1213C79.5587 44.6839 78.7956 45 78 45H72C71.2044 45 70.4413 44.6839 69.8787 44.1213C69.3161 43.5587 69 42.7956 69 42C69 41.2044 69.3161 40.4413 69.8787 39.8787C70.4413 39.3161 71.2044 39 72 39H78C78.7956 39 79.5587 39.3161 80.1213 39.8787C80.6839 40.4413 81 41.2044 81 42Z" fill="#3730A3"/>
</svg>
