<svg width="96" height="96" viewBox="0 0 96 96" fill="none" xmlns="http://www.w3.org/2000/svg">
<path d="M88.2449 27.5138L68.4862 7.75876C67.929 7.20146 67.2675 6.75938 66.5395 6.45777C65.8114 6.15616 65.0311 6.00092 64.243 6.00092C63.455 6.00092 62.6747 6.15616 61.9466 6.45777C61.2186 6.75938 60.5571 7.20146 59.9999 7.75876L7.75491 60C7.19762 60.5572 6.75554 61.2187 6.45392 61.9467C6.15231 62.6748 5.99707 63.4551 5.99707 64.2431C5.99707 65.0312 6.15231 65.8115 6.45392 66.5396C6.75554 67.2676 7.19762 67.9291 7.75491 68.4863L27.5137 88.2413C28.0708 88.7986 28.7323 89.2406 29.4604 89.5423C30.1884 89.8439 30.9687 89.9991 31.7568 89.9991C32.5448 89.9991 33.3252 89.8439 34.0532 89.5423C34.7813 89.2406 35.4427 88.7986 35.9999 88.2413L88.2449 36C88.8022 35.4428 89.2443 34.7813 89.5459 34.0533C89.8475 33.3253 90.0028 32.5449 90.0028 31.7569C90.0028 30.9688 89.8475 30.1885 89.5459 29.4605C89.2443 28.7324 88.8022 28.0709 88.2449 27.5138ZM31.7549 84L11.9999 64.2413L23.9999 52.2413L33.8774 62.1225C34.1561 62.4012 34.487 62.6223 34.8512 62.7732C35.2154 62.924 35.6057 63.0017 35.9999 63.0017C36.3941 63.0017 36.7844 62.924 37.1486 62.7732C37.5128 62.6223 37.8437 62.4012 38.1224 62.1225C38.4011 61.8438 38.6222 61.5129 38.7731 61.1487C38.9239 60.7845 39.0016 60.3942 39.0016 60C39.0016 59.6058 38.9239 59.2155 38.7731 58.8513C38.6222 58.4871 38.4011 58.1562 38.1224 57.8775L28.2412 48L35.9999 40.2413L45.8774 50.1225C46.4403 50.6854 47.2038 51.0017 47.9999 51.0017C48.796 51.0017 49.5595 50.6854 50.1224 50.1225C50.6853 49.5596 51.0016 48.7961 51.0016 48C51.0016 47.2039 50.6853 46.4404 50.1224 45.8775L40.2412 36L47.9999 28.2413L57.8774 38.1225C58.1561 38.4012 58.487 38.6223 58.8512 38.7732C59.2154 38.924 59.6057 39.0017 59.9999 39.0017C60.3941 39.0017 60.7844 38.924 61.1486 38.7732C61.5128 38.6223 61.8437 38.4012 62.1224 38.1225C62.4012 37.8438 62.6222 37.5129 62.7731 37.1487C62.9239 36.7845 63.0016 36.3942 63.0016 36C63.0016 35.6058 62.9239 35.2155 62.7731 34.8513C62.6222 34.4871 62.4012 34.1562 62.1224 33.8775L52.2412 24L64.2412 12L83.9999 31.7588L31.7549 84Z" fill="#3730A3"/>
</svg>
