<svg width="56" height="56" viewBox="0 0 56 56" fill="none" xmlns="http://www.w3.org/2000/svg">
<rect width="56" height="56" rx="16" fill="#3730A3" fill-opacity="0.1"/>
<path d="M34.7075 30.2925C34.8005 30.3854 34.8742 30.4957 34.9246 30.6171C34.9749 30.7385 35.0008 30.8686 35.0008 31C35.0008 31.1314 34.9749 31.2615 34.9246 31.3829C34.8742 31.5043 34.8005 31.6146 34.7075 31.7075L31.7075 34.7075C31.5199 34.8951 31.2654 35.0006 31 35.0006C30.7346 35.0006 30.4801 34.8951 30.2925 34.7075C30.1049 34.5199 29.9994 34.2654 29.9994 34C29.9994 33.7346 30.1049 33.4801 30.2925 33.2925L32.5863 31L30.2925 28.7075C30.1049 28.5199 29.9994 28.2654 29.9994 28C29.9994 27.7346 30.1049 27.4801 30.2925 27.2925C30.4801 27.1049 30.7346 26.9994 31 26.9994C31.2654 26.9994 31.5199 27.1049 31.7075 27.2925L34.7075 30.2925ZM25.7075 27.2925C25.6146 27.1995 25.5043 27.1258 25.3829 27.0754C25.2615 27.0251 25.1314 26.9992 25 26.9992C24.8686 26.9992 24.7385 27.0251 24.6171 27.0754C24.4957 27.1258 24.3854 27.1995 24.2925 27.2925L21.2925 30.2925C21.1995 30.3854 21.1258 30.4957 21.0754 30.6171C21.0251 30.7385 20.9992 30.8686 20.9992 31C20.9992 31.1314 21.0251 31.2615 21.0754 31.3829C21.1258 31.5043 21.1995 31.6146 21.2925 31.7075L24.2925 34.7075C24.3854 34.8004 24.4957 34.8741 24.6171 34.9244C24.7385 34.9747 24.8686 35.0006 25 35.0006C25.1314 35.0006 25.2615 34.9747 25.3829 34.9244C25.5043 34.8741 25.6146 34.8004 25.7075 34.7075C25.8004 34.6146 25.8741 34.5043 25.9244 34.3829C25.9747 34.2615 26.0006 34.1314 26.0006 34C26.0006 33.8686 25.9747 33.7385 25.9244 33.6171C25.8741 33.4957 25.8004 33.3854 25.7075 33.2925L23.4137 31L25.7075 28.7075C25.8005 28.6146 25.8742 28.5043 25.9246 28.3829C25.9749 28.2615 26.0008 28.1314 26.0008 28C26.0008 27.8686 25.9749 27.7385 25.9246 27.6171C25.8742 27.4957 25.8005 27.3854 25.7075 27.2925ZM39 23V39C39 39.5304 38.7893 40.0391 38.4142 40.4142C38.0391 40.7893 37.5304 41 37 41H19C18.4696 41 17.9609 40.7893 17.5858 40.4142C17.2107 40.0391 17 39.5304 17 39V17C17 16.4696 17.2107 15.9609 17.5858 15.5858C17.9609 15.2107 18.4696 15 19 15H31C31.1314 14.9999 31.2615 15.0257 31.3829 15.0759C31.5042 15.1261 31.6146 15.1997 31.7075 15.2925L38.7075 22.2925C38.8003 22.3854 38.8739 22.4958 38.9241 22.6172C38.9743 22.7385 39.0001 22.8686 39 23ZM32 22H35.5863L32 18.4138V22ZM37 39V24H31C30.7348 24 30.4804 23.8946 30.2929 23.7071C30.1054 23.5196 30 23.2652 30 23V17H19V39H37Z" fill="#3730A3"/>
</svg>
